<svg xmlns="http://www.w3.org/2000/svg" xmlns:xlink="http://www.w3.org/1999/xlink" width="328" height="328"><path fill="#fff" d="M0 0h328v328H0z"/><defs><path id="a" d="M0 0h8v8H0z"/></defs><use xlink:href="#a" x="32" y="32"/><use xlink:href="#a" x="32" y="40"/><use xlink:href="#a" x="32" y="48"/><use xlink:href="#a" x="32" y="56"/><use xlink:href="#a" x="32" y="64"/><use xlink:href="#a" x="32" y="72"/><use xlink:href="#a" x="32" y="80"/><use xlink:href="#a" x="32" y="96"/><use xlink:href="#a" x="32" y="112"/><use xlink:href="#a" x="32" y="128"/><use xlink:href="#a" x="32" y="136"/><use xlink:href="#a" x="32" y="152"/><use xlink:href="#a" x="32" y="160"/><use xlink:href="#a" x="32" y="168"/><use xlink:href="#a" x="32" y="176"/><use xlink:href="#a" x="32" y="192"/><use xlink:href="#a" x="32" y="208"/><use xlink:href="#a" x="32" y="216"/><use xlink:href="#a" x="32" y="240"/><use xlink:href="#a" x="32" y="248"/><use xlink:href="#a" x="32" y="256"/><use xlink:href="#a" x="32" y="264"/><use xlink:href="#a" x="32" y="272"/><use xlink:href="#a" x="32" y="280"/><use xlink:href="#a" x="32" y="288"/><use xlink:href="#a" x="40" y="32"/><use xlink:href="#a" x="40" y="80"/><use xlink:href="#a" x="40" y="104"/><use xlink:href="#a" x="40" y="152"/><use xlink:href="#a" x="40" y="160"/><use xlink:href="#a" x="40" y="168"/><use xlink:href="#a" x="40" y="184"/><use xlink:href="#a" x="40" y="208"/><use xlink:href="#a" x="40" y="216"/><use xlink:href="#a" x="40" y="240"/><use xlink:href="#a" x="40" y="288"/><use xlink:href="#a" x="48" y="32"/><use xlink:href="#a" x="48" y="48"/><use xlink:href="#a" x="48" y="56"/><use xlink:href="#a" x="48" y="64"/><use xlink:href="#a" x="48" y="80"/><use xlink:href="#a" x="48" y="112"/><use xlink:href="#a" x="48" y="120"/><use xlink:href="#a" x="48" y="128"/><use xlink:href="#a" x="48" y="136"/><use xlink:href="#a" x="48" y="144"/><use xlink:href="#a" x="48" y="152"/><use xlink:href="#a" x="48" y="176"/><use xlink:href="#a" x="48" y="184"/><use xlink:href="#a" x="48" y="192"/><use xlink:href="#a" x="48" y="224"/><use xlink:href="#a" x="48" y="240"/><use xlink:href="#a" x="48" y="256"/><use xlink:href="#a" x="48" y="264"/><use xlink:href="#a" x="48" y="272"/><use xlink:href="#a" x="48" y="288"/><use xlink:href="#a" x="56" y="32"/><use xlink:href="#a" x="56" y="48"/><use xlink:href="#a" x="56" y="56"/><use xlink:href="#a" x="56" y="64"/><use xlink:href="#a" x="56" y="80"/><use xlink:href="#a" x="56" y="128"/><use xlink:href="#a" x="56" y="136"/><use xlink:href="#a" x="56" y="152"/><use xlink:href="#a" x="56" y="160"/><use xlink:href="#a" x="56" y="176"/><use xlink:href="#a" x="56" y="200"/><use xlink:href="#a" x="56" y="216"/><use xlink:href="#a" x="56" y="240"/><use xlink:href="#a" x="56" y="256"/><use xlink:href="#a" x="56" y="264"/><use xlink:href="#a" x="56" y="272"/><use xlink:href="#a" x="56" y="288"/><use xlink:href="#a" x="64" y="32"/><use xlink:href="#a" x="64" y="48"/><use xlink:href="#a" x="64" y="56"/><use xlink:href="#a" x="64" y="64"/><use xlink:href="#a" x="64" y="80"/><use xlink:href="#a" x="64" y="96"/><use xlink:href="#a" x="64" y="112"/><use xlink:href="#a" x="64" y="120"/><use xlink:href="#a" x="64" y="136"/><use xlink:href="#a" x="64" y="144"/><use xlink:href="#a" x="64" y="152"/><use xlink:href="#a" x="64" y="160"/><use xlink:href="#a" x="64" y="168"/><use xlink:href="#a" x="64" y="176"/><use xlink:href="#a" x="64" y="184"/><use xlink:href="#a" x="64" y="208"/><use xlink:href="#a" x="64" y="216"/><use xlink:href="#a" x="64" y="224"/><use xlink:href="#a" x="64" y="240"/><use xlink:href="#a" x="64" y="256"/><use xlink:href="#a" x="64" y="264"/><use xlink:href="#a" x="64" y="272"/><use xlink:href="#a" x="64" y="288"/><use xlink:href="#a" x="72" y="32"/><use xlink:href="#a" x="72" y="80"/><use xlink:href="#a" x="72" y="104"/><use xlink:href="#a" x="72" y="112"/><use xlink:href="#a" x="72" y="136"/><use xlink:href="#a" x="72" y="144"/><use xlink:href="#a" x="72" y="160"/><use xlink:href="#a" x="72" y="168"/><use xlink:href="#a" x="72" y="192"/><use xlink:href="#a" x="72" y="200"/><use xlink:href="#a" x="72" y="208"/><use xlink:href="#a" x="72" y="216"/><use xlink:href="#a" x="72" y="240"/><use xlink:href="#a" x="72" y="288"/><use xlink:href="#a" x="80" y="32"/><use xlink:href="#a" x="80" y="40"/><use xlink:href="#a" x="80" y="48"/><use xlink:href="#a" x="80" y="56"/><use xlink:href="#a" x="80" y="64"/><use xlink:href="#a" x="80" y="72"/><use xlink:href="#a" x="80" y="80"/><use xlink:href="#a" x="80" y="96"/><use xlink:href="#a" x="80" y="112"/><use xlink:href="#a" x="80" y="128"/><use xlink:href="#a" x="80" y="144"/><use xlink:href="#a" x="80" y="160"/><use xlink:href="#a" x="80" y="176"/><use xlink:href="#a" x="80" y="192"/><use xlink:href="#a" x="80" y="208"/><use xlink:href="#a" x="80" y="224"/><use xlink:href="#a" x="80" y="240"/><use xlink:href="#a" x="80" y="248"/><use xlink:href="#a" x="80" y="256"/><use xlink:href="#a" x="80" y="264"/><use xlink:href="#a" x="80" y="272"/><use xlink:href="#a" x="80" y="280"/><use xlink:href="#a" x="80" y="288"/><use xlink:href="#a" x="88" y="96"/><use xlink:href="#a" x="88" y="104"/><use xlink:href="#a" x="88" y="112"/><use xlink:href="#a" x="88" y="120"/><use xlink:href="#a" x="88" y="136"/><use xlink:href="#a" x="88" y="152"/><use xlink:href="#a" x="88" y="168"/><use xlink:href="#a" x="88" y="176"/><use xlink:href="#a" x="88" y="184"/><use xlink:href="#a" x="88" y="192"/><use xlink:href="#a" x="88" y="208"/><use xlink:href="#a" x="88" y="216"/><use xlink:href="#a" x="88" y="224"/><use xlink:href="#a" x="96" y="32"/><use xlink:href="#a" x="96" y="56"/><use xlink:href="#a" x="96" y="64"/><use xlink:href="#a" x="96" y="72"/><use xlink:href="#a" x="96" y="80"/><use xlink:href="#a" x="96" y="88"/><use xlink:href="#a" x="96" y="96"/><use xlink:href="#a" x="96" y="112"/><use xlink:href="#a" x="96" y="128"/><use xlink:href="#a" x="96" y="160"/><use xlink:href="#a" x="96" y="168"/><use xlink:href="#a" x="96" y="216"/><use xlink:href="#a" x="96" y="232"/><use xlink:href="#a" x="96" y="240"/><use xlink:href="#a" x="96" y="256"/><use xlink:href="#a" x="96" y="288"/><use xlink:href="#a" x="104" y="40"/><use xlink:href="#a" x="104" y="56"/><use xlink:href="#a" x="104" y="64"/><use xlink:href="#a" x="104" y="72"/><use xlink:href="#a" x="104" y="160"/><use xlink:href="#a" x="104" y="168"/><use xlink:href="#a" x="104" y="192"/><use xlink:href="#a" x="104" y="240"/><use xlink:href="#a" x="104" y="264"/><use xlink:href="#a" x="104" y="272"/><use xlink:href="#a" x="112" y="40"/><use xlink:href="#a" x="112" y="48"/><use xlink:href="#a" x="112" y="72"/><use xlink:href="#a" x="112" y="80"/><use xlink:href="#a" x="112" y="96"/><use xlink:href="#a" x="112" y="104"/><use xlink:href="#a" x="112" y="120"/><use xlink:href="#a" x="112" y="128"/><use xlink:href="#a" x="112" y="136"/><use xlink:href="#a" x="112" y="144"/><use xlink:href="#a" x="112" y="152"/><use xlink:href="#a" x="112" y="168"/><use xlink:href="#a" x="112" y="176"/><use xlink:href="#a" x="112" y="184"/><use xlink:href="#a" x="112" y="216"/><use xlink:href="#a" x="112" y="224"/><use xlink:href="#a" x="112" y="232"/><use xlink:href="#a" x="112" y="240"/><use xlink:href="#a" x="112" y="264"/><use xlink:href="#a" x="112" y="288"/><use xlink:href="#a" x="120" y="32"/><use xlink:href="#a" x="120" y="40"/><use xlink:href="#a" x="120" y="56"/><use xlink:href="#a" x="120" y="88"/><use xlink:href="#a" x="120" y="104"/><use xlink:href="#a" x="120" y="136"/><use xlink:href="#a" x="120" y="144"/><use xlink:href="#a" x="120" y="152"/><use xlink:href="#a" x="120" y="192"/><use xlink:href="#a" x="120" y="208"/><use xlink:href="#a" x="120" y="224"/><use xlink:href="#a" x="120" y="232"/><use xlink:href="#a" x="120" y="248"/><use xlink:href="#a" x="120" y="256"/><use xlink:href="#a" x="120" y="280"/><use xlink:href="#a" x="128" y="32"/><use xlink:href="#a" x="128" y="40"/><use xlink:href="#a" x="128" y="48"/><use xlink:href="#a" x="128" y="56"/><use xlink:href="#a" x="128" y="72"/><use xlink:href="#a" x="128" y="80"/><use xlink:href="#a" x="128" y="96"/><use xlink:href="#a" x="128" y="120"/><use xlink:href="#a" x="128" y="128"/><use xlink:href="#a" x="128" y="144"/><use xlink:href="#a" x="128" y="160"/><use xlink:href="#a" x="128" y="176"/><use xlink:href="#a" x="128" y="184"/><use xlink:href="#a" x="128" y="200"/><use xlink:href="#a" x="128" y="208"/><use xlink:href="#a" x="128" y="256"/><use xlink:href="#a" x="128" y="264"/><use xlink:href="#a" x="128" y="272"/><use xlink:href="#a" x="128" y="280"/><use xlink:href="#a" x="136" y="32"/><use xlink:href="#a" x="136" y="40"/><use xlink:href="#a" x="136" y="112"/><use xlink:href="#a" x="136" y="120"/><use xlink:href="#a" x="136" y="128"/><use xlink:href="#a" x="136" y="152"/><use xlink:href="#a" x="136" y="176"/><use xlink:href="#a" x="136" y="184"/><use xlink:href="#a" x="136" y="192"/><use xlink:href="#a" x="136" y="216"/><use xlink:href="#a" x="136" y="224"/><use xlink:href="#a" x="136" y="232"/><use xlink:href="#a" x="136" y="256"/><use xlink:href="#a" x="136" y="264"/><use xlink:href="#a" x="136" y="280"/><use xlink:href="#a" x="144" y="40"/><use xlink:href="#a" x="144" y="48"/><use xlink:href="#a" x="144" y="80"/><use xlink:href="#a" x="144" y="88"/><use xlink:href="#a" x="144" y="112"/><use xlink:href="#a" x="144" y="136"/><use xlink:href="#a" x="144" y="144"/><use xlink:href="#a" x="144" y="152"/><use xlink:href="#a" x="144" y="192"/><use xlink:href="#a" x="144" y="208"/><use xlink:href="#a" x="144" y="224"/><use xlink:href="#a" x="144" y="232"/><use xlink:href="#a" x="144" y="240"/><use xlink:href="#a" x="144" y="248"/><use xlink:href="#a" x="144" y="256"/><use xlink:href="#a" x="144" y="272"/><use xlink:href="#a" x="152" y="32"/><use xlink:href="#a" x="152" y="48"/><use xlink:href="#a" x="152" y="72"/><use xlink:href="#a" x="152" y="96"/><use xlink:href="#a" x="152" y="104"/><use xlink:href="#a" x="152" y="112"/><use xlink:href="#a" x="152" y="144"/><use xlink:href="#a" x="152" y="152"/><use xlink:href="#a" x="152" y="168"/><use xlink:href="#a" x="152" y="176"/><use xlink:href="#a" x="152" y="184"/><use xlink:href="#a" x="152" y="224"/><use xlink:href="#a" x="152" y="232"/><use xlink:href="#a" x="152" y="240"/><use xlink:href="#a" x="152" y="248"/><use xlink:href="#a" x="152" y="272"/><use xlink:href="#a" x="152" y="280"/><use xlink:href="#a" x="160" y="48"/><use xlink:href="#a" x="160" y="56"/><use xlink:href="#a" x="160" y="64"/><use xlink:href="#a" x="160" y="80"/><use xlink:href="#a" x="160" y="104"/><use xlink:href="#a" x="160" y="120"/><use xlink:href="#a" x="160" y="128"/><use xlink:href="#a" x="160" y="152"/><use xlink:href="#a" x="160" y="168"/><use xlink:href="#a" x="160" y="176"/><use xlink:href="#a" x="160" y="200"/><use xlink:href="#a" x="160" y="208"/><use xlink:href="#a" x="160" y="224"/><use xlink:href="#a" x="160" y="232"/><use xlink:href="#a" x="160" y="248"/><use xlink:href="#a" x="160" y="256"/><use xlink:href="#a" x="160" y="280"/><use xlink:href="#a" x="168" y="48"/><use xlink:href="#a" x="168" y="56"/><use xlink:href="#a" x="168" y="64"/><use xlink:href="#a" x="168" y="72"/><use xlink:href="#a" x="168" y="88"/><use xlink:href="#a" x="168" y="96"/><use xlink:href="#a" x="168" y="104"/><use xlink:href="#a" x="168" y="136"/><use xlink:href="#a" x="168" y="144"/><use xlink:href="#a" x="168" y="152"/><use xlink:href="#a" x="168" y="160"/><use xlink:href="#a" x="168" y="176"/><use xlink:href="#a" x="168" y="184"/><use xlink:href="#a" x="168" y="200"/><use xlink:href="#a" x="168" y="216"/><use xlink:href="#a" x="168" y="224"/><use xlink:href="#a" x="168" y="232"/><use xlink:href="#a" x="168" y="280"/><use xlink:href="#a" x="168" y="288"/><use xlink:href="#a" x="176" y="32"/><use xlink:href="#a" x="176" y="40"/><use xlink:href="#a" x="176" y="48"/><use xlink:href="#a" x="176" y="80"/><use xlink:href="#a" x="176" y="88"/><use xlink:href="#a" x="176" y="104"/><use xlink:href="#a" x="176" y="112"/><use xlink:href="#a" x="176" y="136"/><use xlink:href="#a" x="176" y="144"/><use xlink:href="#a" x="176" y="152"/><use xlink:href="#a" x="176" y="160"/><use xlink:href="#a" x="176" y="168"/><use xlink:href="#a" x="176" y="184"/><use xlink:href="#a" x="176" y="192"/><use xlink:href="#a" x="176" y="208"/><use xlink:href="#a" x="176" y="216"/><use xlink:href="#a" x="176" y="240"/><use xlink:href="#a" x="176" y="264"/><use xlink:href="#a" x="176" y="272"/><use xlink:href="#a" x="176" y="280"/><use xlink:href="#a" x="184" y="40"/><use xlink:href="#a" x="184" y="48"/><use xlink:href="#a" x="184" y="64"/><use xlink:href="#a" x="184" y="88"/><use xlink:href="#a" x="184" y="120"/><use xlink:href="#a" x="184" y="136"/><use xlink:href="#a" x="184" y="160"/><use xlink:href="#a" x="184" y="192"/><use xlink:href="#a" x="184" y="200"/><use xlink:href="#a" x="184" y="208"/><use xlink:href="#a" x="184" y="216"/><use xlink:href="#a" x="184" y="248"/><use xlink:href="#a" x="184" y="256"/><use xlink:href="#a" x="184" y="264"/><use xlink:href="#a" x="184" y="288"/><use xlink:href="#a" x="192" y="72"/><use xlink:href="#a" x="192" y="80"/><use xlink:href="#a" x="192" y="88"/><use xlink:href="#a" x="192" y="96"/><use xlink:href="#a" x="192" y="120"/><use xlink:href="#a" x="192" y="136"/><use xlink:href="#a" x="192" y="144"/><use xlink:href="#a" x="192" y="160"/><use xlink:href="#a" x="192" y="168"/><use xlink:href="#a" x="192" y="176"/><use xlink:href="#a" x="192" y="184"/><use xlink:href="#a" x="192" y="192"/><use xlink:href="#a" x="192" y="216"/><use xlink:href="#a" x="192" y="224"/><use xlink:href="#a" x="192" y="264"/><use xlink:href="#a" x="192" y="272"/><use xlink:href="#a" x="192" y="288"/><use xlink:href="#a" x="200" y="48"/><use xlink:href="#a" x="200" y="56"/><use xlink:href="#a" x="200" y="64"/><use xlink:href="#a" x="200" y="72"/><use xlink:href="#a" x="200" y="88"/><use xlink:href="#a" x="200" y="96"/><use xlink:href="#a" x="200" y="104"/><use xlink:href="#a" x="200" y="144"/><use xlink:href="#a" x="200" y="152"/><use xlink:href="#a" x="200" y="160"/><use xlink:href="#a" x="200" y="176"/><use xlink:href="#a" x="200" y="184"/><use xlink:href="#a" x="200" y="208"/><use xlink:href="#a" x="200" y="216"/><use xlink:href="#a" x="200" y="224"/><use xlink:href="#a" x="200" y="232"/><use xlink:href="#a" x="200" y="272"/><use xlink:href="#a" x="200" y="280"/><use xlink:href="#a" x="200" y="288"/><use xlink:href="#a" x="208" y="56"/><use xlink:href="#a" x="208" y="64"/><use xlink:href="#a" x="208" y="72"/><use xlink:href="#a" x="208" y="80"/><use xlink:href="#a" x="208" y="96"/><use xlink:href="#a" x="208" y="104"/><use xlink:href="#a" x="208" y="120"/><use xlink:href="#a" x="208" y="128"/><use xlink:href="#a" x="208" y="160"/><use xlink:href="#a" x="208" y="168"/><use xlink:href="#a" x="208" y="176"/><use xlink:href="#a" x="208" y="200"/><use xlink:href="#a" x="208" y="216"/><use xlink:href="#a" x="208" y="224"/><use xlink:href="#a" x="208" y="232"/><use xlink:href="#a" x="208" y="248"/><use xlink:href="#a" x="208" y="256"/><use xlink:href="#a" x="208" y="288"/><use xlink:href="#a" x="216" y="32"/><use xlink:href="#a" x="216" y="48"/><use xlink:href="#a" x="216" y="72"/><use xlink:href="#a" x="216" y="96"/><use xlink:href="#a" x="216" y="104"/><use xlink:href="#a" x="216" y="112"/><use xlink:href="#a" x="216" y="128"/><use xlink:href="#a" x="216" y="144"/><use xlink:href="#a" x="216" y="152"/><use xlink:href="#a" x="216" y="168"/><use xlink:href="#a" x="216" y="176"/><use xlink:href="#a" x="216" y="208"/><use xlink:href="#a" x="216" y="232"/><use xlink:href="#a" x="216" y="264"/><use xlink:href="#a" x="216" y="280"/><use xlink:href="#a" x="216" y="288"/><use xlink:href="#a" x="224" y="72"/><use xlink:href="#a" x="224" y="80"/><use xlink:href="#a" x="224" y="88"/><use xlink:href="#a" x="224" y="120"/><use xlink:href="#a" x="224" y="128"/><use xlink:href="#a" x="224" y="136"/><use xlink:href="#a" x="224" y="144"/><use xlink:href="#a" x="224" y="160"/><use xlink:href="#a" x="224" y="168"/><use xlink:href="#a" x="224" y="176"/><use xlink:href="#a" x="224" y="184"/><use xlink:href="#a" x="224" y="208"/><use xlink:href="#a" x="224" y="224"/><use xlink:href="#a" x="224" y="232"/><use xlink:href="#a" x="224" y="240"/><use xlink:href="#a" x="224" y="248"/><use xlink:href="#a" x="224" y="256"/><use xlink:href="#a" x="224" y="280"/><use xlink:href="#a" x="224" y="288"/><use xlink:href="#a" x="232" y="96"/><use xlink:href="#a" x="232" y="104"/><use xlink:href="#a" x="232" y="112"/><use xlink:href="#a" x="232" y="120"/><use xlink:href="#a" x="232" y="136"/><use xlink:href="#a" x="232" y="144"/><use xlink:href="#a" x="232" y="152"/><use xlink:href="#a" x="232" y="176"/><use xlink:href="#a" x="232" y="184"/><use xlink:href="#a" x="232" y="208"/><use xlink:href="#a" x="232" y="216"/><use xlink:href="#a" x="232" y="224"/><use xlink:href="#a" x="232" y="256"/><use xlink:href="#a" x="232" y="272"/><use xlink:href="#a" x="232" y="288"/><use xlink:href="#a" x="240" y="32"/><use xlink:href="#a" x="240" y="40"/><use xlink:href="#a" x="240" y="48"/><use xlink:href="#a" x="240" y="56"/><use xlink:href="#a" x="240" y="64"/><use xlink:href="#a" x="240" y="72"/><use xlink:href="#a" x="240" y="80"/><use xlink:href="#a" x="240" y="96"/><use xlink:href="#a" x="240" y="120"/><use xlink:href="#a" x="240" y="128"/><use xlink:href="#a" x="240" y="144"/><use xlink:href="#a" x="240" y="152"/><use xlink:href="#a" x="240" y="160"/><use xlink:href="#a" x="240" y="184"/><use xlink:href="#a" x="240" y="192"/><use xlink:href="#a" x="240" y="200"/><use xlink:href="#a" x="240" y="216"/><use xlink:href="#a" x="240" y="224"/><use xlink:href="#a" x="240" y="240"/><use xlink:href="#a" x="240" y="256"/><use xlink:href="#a" x="240" y="264"/><use xlink:href="#a" x="240" y="272"/><use xlink:href="#a" x="240" y="280"/><use xlink:href="#a" x="240" y="288"/><use xlink:href="#a" x="248" y="32"/><use xlink:href="#a" x="248" y="80"/><use xlink:href="#a" x="248" y="96"/><use xlink:href="#a" x="248" y="128"/><use xlink:href="#a" x="248" y="136"/><use xlink:href="#a" x="248" y="152"/><use xlink:href="#a" x="248" y="176"/><use xlink:href="#a" x="248" y="184"/><use xlink:href="#a" x="248" y="192"/><use xlink:href="#a" x="248" y="224"/><use xlink:href="#a" x="248" y="256"/><use xlink:href="#a" x="248" y="264"/><use xlink:href="#a" x="248" y="272"/><use xlink:href="#a" x="256" y="32"/><use xlink:href="#a" x="256" y="48"/><use xlink:href="#a" x="256" y="56"/><use xlink:href="#a" x="256" y="64"/><use xlink:href="#a" x="256" y="80"/><use xlink:href="#a" x="256" y="96"/><use xlink:href="#a" x="256" y="144"/><use xlink:href="#a" x="256" y="160"/><use xlink:href="#a" x="256" y="192"/><use xlink:href="#a" x="256" y="216"/><use xlink:href="#a" x="256" y="224"/><use xlink:href="#a" x="256" y="232"/><use xlink:href="#a" x="256" y="240"/><use xlink:href="#a" x="256" y="248"/><use xlink:href="#a" x="256" y="256"/><use xlink:href="#a" x="256" y="264"/><use xlink:href="#a" x="256" y="272"/><use xlink:href="#a" x="264" y="32"/><use xlink:href="#a" x="264" y="48"/><use xlink:href="#a" x="264" y="56"/><use xlink:href="#a" x="264" y="64"/><use xlink:href="#a" x="264" y="80"/><use xlink:href="#a" x="264" y="96"/><use xlink:href="#a" x="264" y="104"/><use xlink:href="#a" x="264" y="112"/><use xlink:href="#a" x="264" y="128"/><use xlink:href="#a" x="264" y="160"/><use xlink:href="#a" x="264" y="168"/><use xlink:href="#a" x="264" y="176"/><use xlink:href="#a" x="264" y="192"/><use xlink:href="#a" x="264" y="200"/><use xlink:href="#a" x="264" y="216"/><use xlink:href="#a" x="264" y="224"/><use xlink:href="#a" x="264" y="240"/><use xlink:href="#a" x="264" y="256"/><use xlink:href="#a" x="264" y="264"/><use xlink:href="#a" x="264" y="272"/><use xlink:href="#a" x="264" y="288"/><use xlink:href="#a" x="272" y="32"/><use xlink:href="#a" x="272" y="48"/><use xlink:href="#a" x="272" y="56"/><use xlink:href="#a" x="272" y="64"/><use xlink:href="#a" x="272" y="80"/><use xlink:href="#a" x="272" y="104"/><use xlink:href="#a" x="272" y="136"/><use xlink:href="#a" x="272" y="168"/><use xlink:href="#a" x="272" y="200"/><use xlink:href="#a" x="272" y="208"/><use xlink:href="#a" x="272" y="232"/><use xlink:href="#a" x="272" y="264"/><use xlink:href="#a" x="280" y="32"/><use xlink:href="#a" x="280" y="80"/><use xlink:href="#a" x="280" y="112"/><use xlink:href="#a" x="280" y="144"/><use xlink:href="#a" x="280" y="160"/><use xlink:href="#a" x="280" y="168"/><use xlink:href="#a" x="280" y="176"/><use xlink:href="#a" x="280" y="184"/><use xlink:href="#a" x="280" y="200"/><use xlink:href="#a" x="280" y="208"/><use xlink:href="#a" x="280" y="216"/><use xlink:href="#a" x="280" y="224"/><use xlink:href="#a" x="280" y="264"/><use xlink:href="#a" x="288" y="32"/><use xlink:href="#a" x="288" y="40"/><use xlink:href="#a" x="288" y="48"/><use xlink:href="#a" x="288" y="56"/><use xlink:href="#a" x="288" y="64"/><use xlink:href="#a" x="288" y="72"/><use xlink:href="#a" x="288" y="80"/><use xlink:href="#a" x="288" y="96"/><use xlink:href="#a" x="288" y="104"/><use xlink:href="#a" x="288" y="128"/><use xlink:href="#a" x="288" y="216"/><use xlink:href="#a" x="288" y="248"/><use xlink:href="#a" x="288" y="256"/><use xlink:href="#a" x="288" y="288"/></svg>